<?xml version="1.0" encoding="utf-8"?>
<!-- Generator: Adobe Illustrator 24.2.3, SVG Export Plug-In . SVG Version: 6.00 Build 0)  -->
<svg version="1.1" id="Lager_1" xmlns="http://www.w3.org/2000/svg" xmlns:xlink="http://www.w3.org/1999/xlink" x="0px" y="0px"
	 viewBox="0 0 266.2 242.6" style="enable-background:new 0 0 266.2 242.6;" xml:space="preserve">
<style type="text/css">
	.st0{fill:#3BCFC9;}
	.st1{fill:#3BDDC9;}
	.st2{fill:#FFFFFF;}
	.st3{font-family:'AktivGrotesk-Black';}
	.st4{font-size:24.3702px;}
	.st5{letter-spacing:-1;}
</style>
<polygon class="st0" points="7,202.9 266.2,202.9 259.2,242.6 0,242.6 "/>
<path class="st1" d="M101.1,126.2l12.2-69h27.6l-4.8,27.2h15l4.8-27.2h26.4l-12.2,69H145l3.6-20.6h-15l-3.6,20.6H101.1z M60.4,57.2
	h20.8l-12.2,69H48.2l-5.7,32.1h20.8l-3.7,20.8h32.1l3.7-20.8h69l-3.7,20.8h32.1l3.7-20.8h20.8l5.7-32.1h-20.8l12.2-69h20.8l5.7-32.1
	h-20.8l3.7-20.8h-32.1L188,25.1h-69l3.7-20.8H90.5l-3.7,20.8H66.1L60.4,57.2z"/>
<path class="st2" d="M96.9,121.9l12.2-69h27.6l-4.8,27.2h15l4.8-27.2H178l-12.2,69h-25.1l3.6-20.6h-15l-3.6,20.6H96.9z M56.1,52.9
	h20.8l-12.2,69H44L38.3,154h20.8l-3.7,20.8h32.1l3.7-20.8h69l-3.7,20.8h32.1l3.7-20.8h20.8l5.7-32.1H198l12.2-69h20.8l5.7-32.1
	h-20.8L219.5,0h-32.1l-3.7,20.8h-69L118.4,0H86.2l-3.7,20.8H61.8L56.1,52.9z"/>
<text transform="matrix(0.9848 0 -0.1736 0.9848 21.9743 230.8393)"><tspan x="0" y="0" class="st2 st3 st4">HUVU</tspan><tspan x="73.1" y="0" class="st2 st3 st4">D</tspan><tspan x="91.5" y="0" class="st2 st3 st4 st5">K</tspan><tspan x="108.3" y="0" class="st2 st3 st4">O</tspan><tspan x="127.6" y="0" class="st2 st3 st4">N</tspan><tspan x="146" y="0" class="st2 st3 st4">T</tspan><tspan x="161.8" y="0" class="st2 st3 st4">O</tspan><tspan x="181.1" y="0" class="st2 st3 st4">R</tspan><tspan x="198.2" y="0" class="st2 st3 st4">E</tspan><tspan x="214" y="0" class="st2 st3 st4">T</tspan></text>
</svg>
